PathFileType	4	(X/Y/Z)	Kaydara																																																																																																																									
DataRate	CameraRate	NumFrames	NumMarkers	Units	OrigDataRate	OrigDataStartFrame	OrigNumFrames																																																																																																																					
30	30	7	41	mm	30	59	174																																																																																																																					
Frame#	Time	SALE_LFHD			SALE_RFHD			SALE_LBHD			SALE_RBHD			SALE_LFTShould			SALE_RFTShould			SALE_LRRShould			SALE_RRRShould			SALE_T10			SALE_STRN			SALE_TRUN			SALE_LSHO			SALE_LUPA			SALE_LELB			SALE_LFRM			SALE_LWRA			SALE_LWRB			SALE_LFIN			SALE_RSHO			SALE_RUPA			SALE_RELB			SALE_RFRM			SALE_RWRB			SALE_RFIN			SALE_LFWT			SALE_RFWT			SALE_LBWT			SALE_RBWT			SALE_LTHI			SALE_LKNE			SALE_RWRA			SALE_LSHN			SALE_LANK			SALE_LHEE			SALE_LTOE			SALE_RTHI			SALE_RKNE			SALE_RSHN			SALE_RANK			SALE_RHEE			SALE_RTOE		
		X1	Y1	Z1	X2	Y2	Z2	X3	Y3	Z3	X4	Y4	Z4	X5	Y5	Z5	X6	Y6	Z6	X7	Y7	Z7	X8	Y8	Z8	X9	Y9	Z9	X10	Y10	Z10	X11	Y11	Z11	X12	Y12	Z12	X13	Y13	Z13	X14	Y14	Z14	X15	Y15	Z15	X16	Y16	Z16	X17	Y17	Z17	X18	Y18	Z18	X19	Y19	Z19	X20	Y20	Z20	X21	Y21	Z21	X22	Y22	Z22	X23	Y23	Z23	X24	Y24	Z24	X25	Y25	Z25	X26	Y26	Z26	X27	Y27	Z27	X28	Y28	Z28	X29	Y29	Z29	X30	Y30	Z30	X31	Y31	Z31	X32	Y32	Z32	X33	Y33	Z33	X34	Y34	Z34	X35	Y35	Z35	X36	Y36	Z36	X37	Y37	Z37	X38	Y38	Z38	X39	Y39	Z39	X40	Y40	Z40	X41	Y41	Z41
																																																																																																																												
44	1.933	182.38176	1586.69464	-1553.20755	47.54982	1585.70435	-1549.72916	174.58078	1549.16931	-1683.22174	46.84538	1547.43607	-1673.2959	188.71929	1314.37302	-1582.57706	49.88476	1307.41547	-1567.83752	169.47126	1390.86929	-1685.25391	20.47264	1390.23987	-1658.99185	86.12368	1252.92267	-1768.60291	119.75381	1230.72235	-1541.59988	121.75355	1138.24211	-1517.97852	292.30728	1353.4697	-1660.1181	331.90655	1160.36583	-1747.88849	314.38807	1059.60449	-1798.15002	357.04155	958.88214	-1822.25204	336.49891	797.08527	-1794.50165	377.7634	816.07956	-1855.6781	399.29089	763.67493	-1827.20764	-61.93775	1344.88113	-1609.25552	-107.8963	1124.47647	-1695.18127	-130.15183	1018.56041	-1657.15454	-123.63678	905.04776	-1676.51001	-134.88476	765.34782	-1638.22601	-135.64392	723.33977	-1583.98315	245.35885	922.38441	-1633.66791	-29.35284	903.7513	-1647.47849	199.8395	984.07013	-1802.33215	17.65414	988.2663	-1804.70123	251.21178	614.38568	-1660.71503	227.00012	510.29671	-1499.36966	-81.40367	773.48854	-1587.02728	221.23859	311.94023	-1442.37656	218.59377	121.62087	-1439.25308	181.36536	60.70023	-1490.82214	171.982	100.24518	-1275.78682	-12.43379	709.80347	-1865.86456	5.00857	525.46928	-1828.19931	66.83098	353.38127	-1924.57977	30.16693	149.34926	-2089.9292	50.33502	68.64792	-1991.19614	76.95254	119.23658	-2180.12268
45	1.967	186.23306	1591.8335	-1515.52841	51.50733	1590.73608	-1512.73712	179.1958	1553.89297	-1645.38055	51.49053	1551.92719	-1636.08231	193.06309	1318.16727	-1543.8945	54.42471	1313.07327	-1527.44232	173.71006	1393.88519	-1647.26151	24.59189	1394.47479	-1619.57138	88.36096	1255.43991	-1728.06702	124.11583	1235.62073	-1501.48392	125.43843	1143.53676	-1476.22849	296.41403	1355.31891	-1622.67899	336.29128	1160.68031	-1708.40012	319.04024	1059.41261	-1757.62985	361.11816	960.57739	-1784.33472	340.83202	797.88887	-1760.80124	381.39217	818.89503	-1821.81168	402.35916	764.60495	-1796.25092	-57.97709	1349.85855	-1569.05884	-103.4957	1129.68536	-1656.02142	-127.10283	1023.92204	-1619.32571	-121.36378	910.69756	-1639.49432	-133.73277	770.24117	-1602.95914	-135.24521	728.21884	-1548.94211	246.7407	926.64139	-1591.61469	-27.80185	903.2222	-1604.18442	199.90004	988.81523	-1759.8848	17.66981	988.02505	-1761.53763	251.61362	619.95068	-1619.74533	225.44989	516.54194	-1457.22519	-80.54729	778.01758	-1550.95764	218.70033	311.88343	-1412.66953	216.55994	121.65113	-1427.25113	181.07714	64.91547	-1485.62302	169.73038	84.60732	-1267.53242	-10.68051	711.50909	-1824.31122	8.64312	526.85574	-1789.37744	68.32637	357.32365	-1895.26245	27.27169	165.6986	-2074.16656	49.48312	68.9455	-1987.69897	72.87661	145.65201	-2165.94421
46	2	190.13363	1600.44708	-1476.68106	55.34057	1599.39484	-1474.43192	183.58038	1561.15173	-1606.24268	55.8354	1559.27277	-1597.34451	197.43246	1326.35635	-1503.1044	59.23328	1321.51581	-1484.64447	177.28664	1400.72556	-1607.22336	28.89809	1402.57568	-1577.84088	90.2107	1261.46378	-1684.66248	129.18917	1244.78355	-1458.77777	130.44592	1153.08556	-1431.99142	300.19192	1362.35397	-1583.32642	339.9395	1166.04103	-1665.45135	322.47631	1064.28444	-1713.38852	364.48799	966.07254	-1740.23865	344.19437	803.06107	-1717.48093	384.70741	824.83017	-1778.45749	404.47918	768.92563	-1755.04333	-53.09529	1359.5401	-1525.336	-98.96055	1141.79527	-1613.79562	-123.47458	1035.28831	-1579.39285	-118.26237	922.25876	-1601.604	-132.46127	781.56921	-1567.42554	-134.56968	738.05954	-1514.34189	248.54275	935.12352	-1546.63879	-25.78022	906.53198	-1558.2576	198.60744	997.3304	-1714.41254	17.82329	993.41728	-1714.78745	256.2627	628.43384	-1579.58984	224.70322	518.44746	-1424.50668	-79.6216	787.47391	-1514.58435	217.37438	309.36535	-1391.94473	216.66491	120.43643	-1418.51654	182.51936	67.83979	-1481.89117	153.37595	71.43931	-1260.35851	-7.92483	712.45903	-1778.0751	14.1044	526.9767	-1740.69397	69.56416	360.09819	-1856.10977	24.66242	184.23891	-2049.87473	49.4285	68.98757	-1981.18347	69.68352	175.69271	-2141.29883
47	2.033	193.15203	1611.02142	-1437.08618	58.53722	1609.42444	-1435.19409	187.32441	1571.06644	-1566.38336	59.56431	1568.54416	-1557.89597	201.99947	1337.22748	-1461.22711	64.58041	1333.71658	-1442.36359	180.99022	1409.14139	-1566.36078	33.32252	1411.8602	-1536.90536	93.47375	1268.53333	-1640.90424	133.55424	1256.79932	-1414.92584	135.13415	1165.53795	-1386.61438	304.05373	1372.18613	-1542.32193	343.21865	1174.48677	-1621.14822	325.03323	1072.20116	-1667.16232	367.08035	973.18443	-1691.83762	346.41891	810.22163	-1665.4892	387.14828	831.32935	-1726.55685	406.12217	774.82681	-1703.34198	-48.55642	1370.80109	-1483.21777	-95.20911	1155.02174	-1570.86197	-119.98776	1048.07396	-1539.14383	-115.57841	935.18333	-1562.87033	-130.46634	793.54736	-1530.94284	-133.80357	748.88687	-1479.1774	249.70856	943.59886	-1501.44623	-23.81167	912.05635	-1512.30637	198.8529	1007.79999	-1667.89993	19.22402	1000.38643	-1667.7739	257.55373	635.13596	-1548.37189	221.57715	517.42634	-1398.62869	-79.09204	798.62839	-1477.35443	215.11209	307.30814	-1376.88263	216.35632	120.03743	-1413.48373	182.88506	69.50905	-1479.91623	166.84692	65.19282	-1256.48979	-4.08333	711.80702	-1727.90298	15.15638	525.86472	-1683.02475	69.41597	359.12712	-1806.17233	22.82608	202.32048	-2014.81995	49.65354	69.88132	-1970.33829	68.76495	207.9999	-2104.37225
48	2.067	195.83641	1620.29068	-1397.2287	61.26608	1618.20663	-1395.52933	190.20664	1580.2507	-1526.44531	62.48704	1577.30499	-1518.18222	204.97599	1347.164	-1418.83286	67.89002	1343.91434	-1400.53757	183.88992	1417.43942	-1524.72656	36.83356	1420.43442	-1496.12625	97.07641	1275.97511	-1597.68936	136.36646	1267.78923	-1371.3121	137.66572	1176.96327	-1341.41495	307.0546	1381.80954	-1500.08881	346.31371	1182.72148	-1575.37567	327.51877	1079.48784	-1618.80234	369.71001	978.86864	-1639.68109	348.1953	817.07832	-1607.20993	389.35635	835.54657	-1669.04572	407.49981	779.1909	-1643.69705	-45.24017	1380.80521	-1442.43805	-92.08426	1165.32166	-1529.3309	-117.31715	1059.0258	-1498.65341	-113.53363	946.8515	-1524.71161	-128.57898	803.67241	-1494.38736	-134.24578	758.60046	-1444.29901	250.72983	952.03995	-1457.87735	-22.55414	918.3625	-1469.61319	198.75246	1017.86583	-1623.50143	19.82862	1006.82297	-1624.61533	258.14871	642.53601	-1519.52286	218.80123	515.681	-1378.98727	-79.9972	808.77281	-1439.97314	212.82568	305.45296	-1366.50604	215.08656	119.88	-1410.40833	182.62165	70.47747	-1478.90091	156.50937	59.96756	-1249.27643	0.16789	704.87541	-1673.21579	15.23098	520.82989	-1613.13232	67.54004	355.52853	-1746.26633	21.59321	223.88496	-1969.82651	48.71186	80.82425	-1951.87195	68.26348	244.14476	-2054.21188
49	2.1	197.68856	1627.87369	-1357.29492	63.54973	1625.51804	-1355.73898	192.16806	1587.63245	-1486.43967	64.52332	1584.66278	-1478.29651	206.4204	1354.74686	-1377.18658	68.87368	1351.57837	-1360.4129	186.93947	1424.68292	-1483.39386	39.50977	1427.76443	-1456.85059	100.88451	1283.23273	-1557.42599	137.2597	1275.66879	-1329.70184	138.07355	1184.6904	-1299.69879	309.82407	1389.07761	-1456.86661	349.88728	1187.34146	-1526.6861	331.13361	1083.16025	-1567.90634	372.82135	981.10817	-1584.12354	349.82231	821.44821	-1544.51141	391.81309	836.1261	-1606.80969	408.96709	780.63095	-1577.92831	-43.25294	1388.35052	-1403.96774	-88.52893	1173.35312	-1491.53854	-115.34559	1067.22763	-1461.78864	-111.42022	955.10544	-1487.9953	-129.40294	812.77145	-1461.50543	-136.17795	766.30386	-1410.49805	252.2341	959.15932	-1415.65338	-20.93933	924.38637	-1428.90656	198.63823	1024.9369	-1581.68671	19.79321	1010.70145	-1585.49179	259.4038	649.38766	-1493.43613	218.60334	514.41143	-1361.85226	-82.0851	816.28677	-1403.25165	212.63798	303.80865	-1357.56256	215.40478	119.78346	-1408.57498	182.91576	70.87161	-1478.60901	162.11767	60.53584	-1252.86148	2.55168	692.76817	-1614.76379	14.95952	516.30657	-1534.93988	65.8478	352.87746	-1670.25574	21.42979	241.71261	-1904.70398	45.62627	93.07324	-1921.26343	70.33437	276.16199	-1978.70804
50	2.133	198.63882	1633.29773	-1317.02057	64.49454	1631.35193	-1315.89569	193.3708	1593.58032	-1446.32782	65.73221	1590.90988	-1438.57468	206.05095	1360.01877	-1336.71982	68.85611	1356.92245	-1322.87674	189.51893	1430.27664	-1443.45825	41.39035	1433.46802	-1419.79019	104.50405	1288.79532	-1519.01871	136.25395	1280.52567	-1291.0675	136.30439	1189.76395	-1260.90019	311.73765	1394.09851	-1413.6998	354.07131	1188.91525	-1475.86868	335.74402	1083.45573	-1514.44916	376.48224	980.15205	-1524.46579	350.09109	823.35281	-1477.47711	394.53758	833.7384	-1539.09714	410.08247	780.00114	-1506.0527	-42.5129	1393.93036	-1368.56293	-87.01621	1178.35556	-1455.64255	-114.10952	1072.65411	-1427.38968	-109.87695	960.83984	-1453.96255	-129.48953	818.31726	-1429.28757	-138.97429	772.27554	-1378.09448	252.61505	964.66019	-1374.59305	-21.52792	929.99985	-1388.21945	198.92096	1030.2697	-1541.23962	20.44882	1012.82936	-1548.71735	262.33992	655.24971	-1468.40897	221.71375	511.93741	-1346.69266	-84.82832	821.7392	-1368.11417	215.57476	301.97422	-1350.35416	216.78669	119.29979	-1407.5647	183.67958	70.92271	-1478.55637	159.4008	59.41115	-1250.26543	2.83341	685.08759	-1554.3602	14.02647	515.95402	-1451.66199	67.12523	352.56554	-1584.25629	22.54005	255.69422	-1825.06058	42.35032	109.22229	-1848.87146	73.24128	293.7829	-1897.64526
